<?xml version='1.0' encoding='ASCII' standalone='yes'?>
<svg xmlns="http://www.w3.org/2000/svg" xmlns:xlink="http://www.w3.org/1999/xlink" version="1.1" width="1920.0px" viewBox="0 0 1920.0 1080.0" height="1080.0px">
  <g>
    <g>
      <defs/>
      <rect fill="#092146" height="1080px" width="1920px" x="0" y="0"/>
    </g>
    <g transform="translate(845.25, 505.5) scale(1 1)"><g>
    <g transform="translate(0, 0) scale(1.5 1.5)"><title>bbva/logo/bbva_secundario    </title>
    <g id="bbva/logo/bbva_secundario----" stroke="none" stroke-width="1" fill="none" fill-rule="evenodd">
        <path d="M81.0842419,6.17400012 C81.3664901,6.17400012 81.6230794,6.32560923 81.7513741,6.57829107 L81.7513741,6.57829107 L94.9913813,31.3916482 C95.2736295,31.9222801 96.0947153,31.9222801 96.3769635,31.3916482 L96.3769635,31.3916482 L109.616971,6.57829107 C109.745265,6.32560923 110.001855,6.17400012 110.309762,6.17400012 L110.309762,6.17400012 L116.724494,6.17400012 C117.160696,6.17400012 117.442944,6.62882744 117.237673,7.00785021 L117.237673,7.00785021 L96.3769635,45.466027 C96.0690563,45.9966589 95.2992885,45.9966589 95.0170402,45.466027 L95.0170402,45.466027 L74.1563311,7.00785021 C73.9510597,6.62882744 74.2333079,6.17400012 74.6695097,6.17400012 L74.6695097,6.17400012 Z M20.1598116,6.17400012 C26.913223,6.17400012 31.7083961,10.3678513 31.7083961,16.5575713 C31.7083961,20.1703467 30.0263197,23.1262538 27.3149129,24.4905186 C27.3149129,24.4905186 27.3165794,24.4910007 27.3198578,24.4919828 L27.3584334,24.5040212 C27.9098573,24.6811914 33.5160007,26.6619942 33.5160007,33.9645799 C33.5160007,41.8469989 28.6204051,45.8640009 19.3313262,45.8640009 L19.3313262,45.8640009 L0.753168554,45.8640009 C0.32637304,45.8640009 0,45.5355668 0,45.106076 L0,45.106076 L0,6.93192502 C0,6.50243424 0.32637304,6.17400012 0.753168554,6.17400012 L0.753168554,6.17400012 Z M60.7568267,6.17400012 C67.5102076,6.17400012 72.305359,10.3678513 72.305359,16.5575713 C72.305359,20.1703467 70.6232902,23.1262538 67.9118956,24.4905186 C67.9118956,24.4905186 67.9135621,24.4910007 67.9168404,24.4919828 L67.955413,24.5040212 C68.5067769,24.6811914 74.1117244,26.6619942 74.0879259,33.9645799 C74.0879259,41.8469989 69.1922764,45.8640009 59.9032396,45.8640009 L59.9032396,45.8640009 L41.3251659,45.8640009 C40.8983724,45.8640009 40.5720008,45.5355668 40.5720008,45.106076 L40.5720008,45.106076 L40.5720008,6.93192502 C40.5720008,6.50243424 40.8983724,6.17400012 41.3251659,6.17400012 L41.3251659,6.17400012 Z M18.9547419,28.0527657 L7.28062936,28.0527657 C6.85383384,28.0527657 6.5274608,28.406464 6.5274608,28.8106906 L6.5274608,28.8106906 L6.5274608,39.3458467 C6.5274608,39.7753375 6.85383384,40.1037716 7.28062936,40.1037716 L7.28062936,40.1037716 L18.9547419,40.1037716 C24.5784005,40.1037716 26.9885399,38.5373935 27.0136455,34.0656366 C27.0136455,29.644408 24.5281892,28.0527657 18.9547419,28.0527657 L18.9547419,28.0527657 Z M59.526657,28.0527657 L47.8525972,28.0527657 C47.4258036,28.0527657 47.0994321,28.406464 47.0994321,28.8106906 L47.0994321,28.8106906 L47.0994321,39.3458467 C47.0994321,39.7753375 47.4509091,40.1037716 47.8525972,40.1037716 L47.8525972,40.1037716 L59.526657,40.1037716 C65.1502901,40.1037716 67.5855241,38.5373935 67.5855241,34.0656366 C67.5855241,29.644408 65.1000791,28.0527657 59.526657,28.0527657 L59.526657,28.0527657 Z M130.297041,0.397973906 C130.604948,-0.132657969 131.374716,-0.132657969 131.656964,0.397973906 L131.656964,0.397973906 L152.517673,38.8561507 C152.722945,39.2351735 152.440696,39.6900008 152.004495,39.6900008 L152.004495,39.6900008 L145.589762,39.6900008 C145.307514,39.6900008 145.050925,39.5383917 144.92263,39.2857098 L144.92263,39.2857098 L131.682623,14.4723527 C131.400375,13.9417208 130.579289,13.9417208 130.297041,14.4723527 L130.297041,14.4723527 L117.057034,39.2857098 C116.928739,39.5131235 116.646491,39.6647326 116.364243,39.6900008 L116.364243,39.6900008 L109.94951,39.6900008 C109.513309,39.6900008 109.23106,39.2351735 109.436332,38.8561507 L109.436332,38.8561507 Z M18.8041082,11.9342294 L7.28062936,11.9342294 C6.85383384,11.9342294 6.5274608,12.2626635 6.5274608,12.6921543 L6.5274608,12.6921543 L6.5274608,21.5851398 C6.5274608,22.0146306 6.87893946,22.3430647 7.28062936,22.3430647 L7.28062936,22.3430647 L18.8041082,22.3430647 C23.0469578,22.3430647 25.2060409,20.524045 25.2060409,17.1386471 C25.2060409,13.7532492 23.0469578,11.9342294 18.8041082,11.9342294 L18.8041082,11.9342294 Z M59.4011295,11.9342294 L47.8777027,11.9342294 C47.4509091,11.9342294 47.1245376,12.2626635 47.1245376,12.6921543 L47.1245376,12.6921543 L47.1245376,21.5851398 C47.1245376,22.0146306 47.4509091,22.3430647 47.8777027,22.3430647 L47.8777027,22.3430647 L59.4011295,22.3430647 C63.6439598,22.3430647 65.8030332,20.524045 65.8030332,17.1386471 C65.8030332,13.7532492 63.6439598,11.9342294 59.4011295,11.9342294 L59.4011295,11.9342294 Z" id="Combined-Shape" fill="#FFFFFF"/>
    </g>
</g>
  </g>
</g>
    <g transform="translate(180.0, -240.0) scale(1 1)"><g>
    <g transform="translate(0, 0) scale(13 13)" opacity="0.1"><title>bbva/icon/bbva_blanco    </title>
    <g id="bbva/icon/bbva_blanco----" stroke="none" stroke-width="1" fill="none" fill-rule="evenodd">
        <path d="M31.0121437,101.154544 L58.5840033,49.2646825 C59.1717755,48.1550215 60.8816583,48.1550215 61.4694305,49.2646825 L89.0412901,101.154544 C89.3084593,101.682954 89.8427977,102 90.4305699,102 L103.789029,102 C104.697404,102 105.285176,101.048862 104.857706,100.256247 L61.4159967,19.8322457 C60.8282245,18.7225848 59.2252094,18.7225848 58.5840033,19.8322457 L15.1422943,100.256247 C14.7148236,101.048862 15.3025958,102 16.210971,102 L29.5694301,102 C30.1572023,101.947159 30.7449745,101.630113 31.0121437,101.154544 L31.0121437,101.154544 Z" id="Path" fill="#FFFFFF"/>
    </g>
</g>
  </g>
</g>
  </g>
</svg>
